# xmcd
#
# Track frame offsets:
#	150
#	12757
#	29960
#	51322
#	72145
#	88812
#	110120
#
# Disc length: 1660 seconds
#
# Revision: 0
# Processed by: cddbd v1.4PL0 Copyright (c) Steve Scherf et al.
# Submitted via: dBpowerAMP V4.0
#
DISCID=62067a07
DTITLE=Hits 'n' Green - Hits 'n' Green
DYEAR=1994
DGENRE=R&B
TTITLE0=Back in the USSR
TTITLE1=Green stuff
TTITLE2=Working on it
TTITLE3=Hot love
TTITLE4=Working for a living
TTITLE5=I don´t wanna talk about it
TTITLE6=Kansas city
EXTD=
EXTT0=
EXTT1=
EXTT2=
EXTT3=
EXTT4=
EXTT5=
EXTT6=
PLAYORDER=
